Coordinates
version=1
nRows=14
nColumns=46
inDegrees=yes

Units are S.I. units (second, meters, Newtons, ...)
Angles are in degrees.

endheader
time	pelvis_tilt	pelvis_list	pelvis_rotation	pelvis_tx	pelvis_ty	pelvis_tz	bb_angle	bb_tx	bb_ty	bb_tz	hip_flexion_r	hip_adduction_r	hip_rotation_r	knee_angle_r	knee_angle_r_beta	ankle_angle_r	subtalar_angle_r	mtp_angle_r	crank_angle_r	hip_flexion_l	hip_adduction_l	hip_rotation_l	knee_angle_l	knee_angle_l_beta	ankle_angle_l	subtalar_angle_l	mtp_angle_l	crank_angle_l	lumbar_extension	lumbar_bending	lumbar_rotation	arm_flex_r	arm_add_r	arm_rot_r	elbow_flex_r	pro_sup_r	wrist_flex_r	wrist_dev_r	arm_flex_l	arm_add_l	arm_rot_l	elbow_flex_l	pro_sup_l	wrist_flex_l	wrist_dev_l
      7.50000000	    -22.71073759	      3.82166721	     13.24448639	      0.38831682	      1.19665096	     -0.25287663	      0.00000000	      0.50000000	      0.00000000	      0.25000000	     30.86813355	    -11.29141038	     -0.82855803	     56.23389749	      0.98146666	    -24.38159363	     -7.56784555	      0.00000000	      0.00000000	     63.08379433	      8.83781811	      3.67020766	     80.18132499	      1.39942812	     10.83383912	     -7.52554445	      0.00000000	      0.00000000	    -61.79095982	      0.89922593	     -2.67603526	     35.32428987	    -20.67426127	      6.90955263	     90.67633917	     49.41855834	      0.00000000	      0.00000000	     55.94424526	    -10.13790009	     34.81244236	     76.10217823	     53.22411292	      0.00000000	      0.00000000
      7.50500000	    -22.31925993	      3.45920805	     13.51893823	      0.38710448	      1.19731155	     -0.25336655	      0.00000000	      0.50000000	      0.00000000	      0.25000000	     31.62087260	    -11.02676453	     -1.00263527	     58.44739719	      1.02009952	    -25.21844052	     -7.79160771	      0.00000000	      0.00000000	     61.54072311	      8.66521837	      4.05481532	     77.71898192	      1.35645213	     10.73448538	     -7.44420006	      0.00000000	      0.00000000	    -62.07381909	      1.49033762	     -2.50055513	     35.70098429	    -20.78351243	      6.97501722	     90.58650219	     49.42695113	      0.00000000	      0.00000000	     56.03055809	    -10.05940543	     34.67713742	     76.12711346	     53.23616119	      0.00000000	      0.00000000
      7.51000000	    -21.83109221	      3.17935628	     13.73159433	      0.38592827	      1.19796539	     -0.25387625	      0.00000000	      0.50000000	      0.00000000	      0.25000000	     32.31162128	    -10.87100313	     -1.13642802	     60.70047514	      1.05942315	    -25.87553835	     -7.97211359	      0.00000000	      0.00000000	     59.88274155	      8.44107925	      4.32731830	     75.28969556	      1.31405308	     10.41377950	     -7.30231059	      0.00000000	      0.00000000	    -62.41222167	      2.00425933	     -2.40493235	     36.12026354	    -20.90952407	      7.29930322	     90.37633383	     49.44818133	      0.00000000	      0.00000000	     56.08621204	    -10.03665661	     34.44306037	     76.06490473	     53.23045397	      0.00000000	      0.00000000
      7.51500000	    -21.43994793	      2.57801444	     13.88333340	      0.38463564	      1.19819872	     -0.25417786	      0.00000000	      0.50000000	      0.00000000	      0.25000000	     33.16278252	    -10.32264102	     -1.19020703	     62.88879442	      1.09761653	    -26.40009612	     -7.87615972	      0.00000000	      0.00000000	     58.48127321	      7.94069726	      4.82451363	     73.02661924	      1.27455495	     10.06972984	     -6.98677381	      0.00000000	      0.00000000	    -62.55175568	      2.67604618	     -2.00842147	     36.46636400	    -20.92798617	      7.35617373	     90.30888158	     49.44459079	      0.00000000	      0.00000000	     56.05448542	    -10.10415082	     34.34638407	     76.03805967	     53.22220655	      0.00000000	      0.00000000
      7.52000000	    -21.07786365	      2.13448838	     14.04330865	      0.38329112	      1.19852950	     -0.25440832	      0.00000000	      0.50000000	      0.00000000	      0.25000000	     34.03134387	     -9.95285877	     -1.23014910	     65.04005015	      1.13516302	    -26.98176172	     -7.90268794	      0.00000000	      0.00000000	     57.08310630	      7.49479464	      5.15400015	     70.73761769	      1.23460433	      9.40325411	     -6.49776502	      0.00000000	      0.00000000	    -62.75421690	      3.19178830	     -1.78774370	     37.03506762	    -21.03675984	      7.53861579	     90.15500446	     49.44068147	      0.00000000	      0.00000000	     56.16727775	    -10.09070576	     34.15891602	     76.01432977	     53.20675550	      0.00000000	      0.00000000
      7.52500000	    -20.58094254	      1.90877187	     14.11213834	      0.38215391	      1.19917955	     -0.25474878	      0.00000000	      0.50000000	      0.00000000	      0.25000000	     34.76096735	     -9.83917707	     -1.26430054	     67.19345846	      1.17274709	    -27.47259836	     -7.87145686	      0.00000000	      0.00000000	     55.36166135	      7.18497170	      5.22961590	     68.24603031	      1.19111793	      8.45745587	     -6.71309394	      0.00000000	      0.00000000	    -62.97923102	      3.71033179	     -3.07938072	     39.04374654	    -20.31127056	     10.51768301	     87.81272543	     49.61076310	      0.00000000	      0.00000000	     55.35782225	    -11.44325604	     32.51900046	     77.08420983	     53.54195322	      0.00000000	      0.00000000
      7.53000000	    -20.24884761	      1.26203627	     14.15828484	      0.38083617	      1.19906746	     -0.25491887	      0.00000000	      0.50000000	      0.00000000	      0.25000000	     35.74374180	     -9.30961411	     -1.43733090	     69.32830433	      1.21000718	    -27.80170970	     -7.77657160	      0.00000000	      0.00000000	     54.06992599	      6.54439795	      5.72029161	     66.17242262	      1.15492665	      7.94046895	     -6.32854723	      0.00000000	      0.00000000	    -63.00989781	      4.27450723	     -2.58143834	     39.19942075	    -20.24658270	     10.59595087	     87.76905801	     49.61383746	      0.00000000	      0.00000000	     55.33321284	    -11.53855111	     32.44492307	     77.05891146	     53.53380477	      0.00000000	      0.00000000
      7.53500000	    -20.07356359	      0.91668529	     14.14292995	      0.37929833	      1.19913281	     -0.25488128	      0.00000000	      0.50000000	      0.00000000	      0.25000000	     36.91457096	     -9.07016623	     -1.39253021	     71.50156351	      1.24793770	    -27.90534236	     -7.78948117	      0.00000000	      0.00000000	     52.83752777	      6.00936951	      6.01152839	     63.91673816	      1.11555753	      6.75031187	     -5.24187342	      0.00000000	      0.00000000	    -63.04708006	      4.58061383	     -2.38993142	     39.75999819	    -20.36284938	     10.82607599	     87.59778103	     49.61682960	      0.00000000	      0.00000000	     55.47837586	    -11.51397649	     32.26845427	     76.97162129	     53.51222195	      0.00000000	      0.00000000
      7.54000000	    -19.84418253	      0.36152170	     14.07860051	      0.37788346	      1.19893206	     -0.25493922	      0.00000000	      0.50000000	      0.00000000	      0.25000000	     38.00950036	     -8.59631504	     -1.48085614	     73.61787168	      1.28487425	    -27.83763533	     -7.89310170	      0.00000000	      0.00000000	     51.51305380	      5.33362361	      6.41137146	     61.70328939	      1.07692556	      6.12571536	     -4.69889396	      0.00000000	      0.00000000	    -63.02000148	      5.02732262	     -1.92393778	     40.04753790	    -20.31956567	     11.01312396	     87.47383019	     49.61795607	      0.00000000	      0.00000000	     55.46655787	    -11.60963054	     32.15339900	     76.90081880	     53.49363856	      0.00000000	      0.00000000
      7.54500000	    -19.63809871	      0.24983296	     13.76951764	      0.37659897	      1.19897207	     -0.25467770	      0.00000000	      0.50000000	      0.00000000	      0.25000000	     39.19490539	     -8.44210516	     -1.12925818	     75.87430850	      1.32425650	    -27.27447218	     -7.64181185	      0.00000000	      0.00000000	     49.98481302	      4.71646748	      6.09289103	     59.21449648	      1.03348793	      5.03708608	     -4.27211690	      0.00000000	      0.00000000	    -62.96907638	      4.97687034	     -2.30023193	     41.20915539	    -20.28159273	     12.60413733	     86.11819715	     49.60895588	      0.00000000	      0.00000000	     55.36487985	    -11.87531862	     31.59030756	     76.47423615	     53.43425708	      0.00000000	      0.00000000
      7.55000000	    -19.52834123	     -0.18310098	     13.61381508	      0.37510252	      1.19864074	     -0.25454697	      0.00000000	      0.50000000	      0.00000000	      0.25000000	     40.46136242	     -8.08279936	     -1.13707688	     78.05128194	      1.36225186	    -26.74678105	     -7.87864042	      0.00000000	      0.00000000	     48.70051308	      4.05155723	      6.33014137	     56.92303627	      0.99349440	      3.88223503	     -3.47678456	      0.00000000	      0.00000000	    -62.86200086	      5.25705880	     -2.02276442	     41.73355450	    -20.23876101	     12.81369812	     85.84688323	     49.59827071	      0.00000000	      0.00000000	     55.33042846	    -12.02224755	     31.39384995	     76.55610684	     53.44780277	      0.00000000	      0.00000000
      7.55500000	    -19.37365988	     -0.64422120	     13.27720572	      0.37393942	      1.19832909	     -0.25431894	      0.00000000	      0.50000000	      0.00000000	      0.25000000	     41.64085714	     -7.55935667	     -1.06225633	     80.16967870	      1.39922485	    -25.87405805	     -8.18259998	      0.00000000	      0.00000000	     47.18078121	      3.17116696	      6.17653628	     54.47257404	      0.95072577	      3.29082253	     -3.12147194	      0.00000000	      0.00000000	    -62.81224594	      5.43862364	     -1.64153901	     42.14554060	    -20.17528583	     13.13657985	     85.56586556	     49.59457190	      0.00000000	      0.00000000	     55.21296543	    -12.15681630	     31.21594016	     76.52069417	     53.43967131	      0.00000000	      0.00000000
      7.56000000	    -19.16621445	     -0.89054474	     12.69268497	      0.37280342	      1.19807100	     -0.25416473	      0.00000000	      0.50000000	      0.00000000	      0.25000000	     42.80853539	     -7.11500503	     -0.67712975	     82.33979773	      1.43710058	    -24.68049062	     -8.03178418	      0.00000000	      0.00000000	     45.46831110	      2.32767858	      5.82695115	     51.96681486	      0.90699202	      2.55630978	     -2.68321483	      0.00000000	      0.00000000	    -62.75364237	      5.33049681	     -1.51604009	     42.88512773	    -20.09069602	     14.12112723	     84.70691954	     49.58777329	      0.00000000	      0.00000000	     55.05727753	    -12.37117764	     30.76016847	     76.40333748	     53.41868952	      0.00000000	      0.00000000
      7.56500000	    -19.09435970	     -1.57561359	     12.45117769	      0.37154261	      1.19745101	     -0.25402427	      0.00000000	      0.50000000	      0.00000000	      0.25000000	     44.08228560	     -6.51058903	     -0.89734165	     84.40619397	      1.47316599	    -23.57054689	     -8.43978179	      0.00000000	      0.00000000	     44.05262291	      1.35843261	      5.88228787	     49.56630327	      0.86509519	      1.96014736	     -2.18628025	      0.00000000	      0.00000000	    -62.54776997	      5.77771381	     -0.91565220	     43.20434585	    -20.00845950	     14.30326352	     84.60802527	     49.59337345	      0.00000000	      0.00000000	     54.93764953	    -12.52743254	     30.66011423	     76.36975591	     53.41124895	      0.00000000	      0.00000000
